<?xml version="1.0" standalone="no"?>
<!DOCTYPE svg PUBLIC "-//W3C//DTD SVG 20010904//EN"
 "http://www.w3.org/TR/2001/REC-SVG-20010904/DTD/svg10.dtd">
<svg version="1.0" xmlns="http://www.w3.org/2000/svg"
 width="225.000000pt" height="225.000000pt" viewBox="0 0 225.000000 225.000000"
 preserveAspectRatio="xMidYMid meet">

<g transform="translate(0.000000,225.000000) scale(0.100000,-0.100000)"
fill="#000000" stroke="none">
<path d="M913 2229 c-121 -25 -242 -69 -338 -124 -650 -371 -771 -1246 -243
-1773 441 -442 1145 -442 1586 0 483 482 430 1269 -113 1688 -245 189 -594
271 -892 209z m459 -93 c260 -66 481 -221 622 -438 68 -104 110 -200 143 -327
22 -82 26 -117 26 -246 0 -167 -21 -270 -82 -414 -99 -232 -310 -443 -542
-542 -144 -61 -247 -82 -414 -82 -167 0 -270 21 -414 82 -232 99 -443 310
-542 542 -61 144 -82 247 -82 414 0 167 21 270 82 414 140 328 460 570 823
621 100 14 273 3 380 -24z"/>
<path d="M1010 2014 c-277 -49 -486 -180 -626 -390 -108 -163 -148 -298 -148
-499 0 -104 4 -158 18 -209 89 -334 328 -573 662 -662 104 -27 322 -26 429 3
326 88 563 329 651 659 26 97 26 321 0 418 -88 331 -322 568 -651 658 -68 19
-277 33 -335 22z m323 -103 c42 -11 119 -42 170 -68 76 -39 109 -64 193 -147
83 -84 108 -117 147 -193 70 -136 90 -220 90 -378 0 -158 -20 -242 -90 -378
-39 -76 -64 -109 -147 -193 -84 -83 -117 -108 -193 -147 -134 -69 -220 -90
-373 -90 -155 -1 -228 16 -370 85 -94 45 -115 61 -205 152 -84 84 -109 117
-148 193 -69 134 -90 220 -90 373 -1 155 16 229 83 365 114 231 325 392 579
440 98 19 251 13 354 -14z"/>
</g>
</svg>
