<?xml version="1.0" standalone="no"?>
<!DOCTYPE svg PUBLIC "-//W3C//DTD SVG 20010904//EN"
 "http://www.w3.org/TR/2001/REC-SVG-20010904/DTD/svg10.dtd">
<svg version="1.0" xmlns="http://www.w3.org/2000/svg"
 width="549.000000pt" height="474.000000pt" viewBox="0 0 549.000000 474.000000"
 preserveAspectRatio="xMidYMid meet">

<g transform="translate(0.000000,474.000000) scale(0.100000,-0.100000)"
fill="#000000" stroke="none">
<path d="M255 4450 c-11 -4 -31 -20 -45 -35 l-25 -27 -3 -1856 c-2 -1325 1
-1876 9 -1924 13 -80 61 -183 117 -254 49 -62 154 -134 242 -166 l65 -23 2075
-3 c1516 -2 2093 0 2143 9 156 26 306 135 380 276 70 133 67 60 67 1558 0
1479 2 1426 -60 1550 -57 116 -166 214 -299 267 l-56 23 -1159 5 -1160 5 -240
287 c-147 175 -253 293 -273 302 -27 14 -132 16 -895 15 -474 0 -872 -4 -883
-9z m1815 -392 c80 -94 151 -180 158 -190 13 -17 -17 -18 -897 -18 l-911 0 0
190 0 190 753 0 752 0 145 -172z m2802 -471 c32 -16 75 -48 97 -73 76 -87 71
23 71 -1514 l0 -1377 -31 -61 c-35 -70 -71 -104 -149 -141 l-55 -26 -2075 0
-2075 0 -55 26 c-78 37 -114 71 -149 141 l-31 61 0 1499 0 1498 2198 -2 2197
-3 57 -28z"/>
<path d="M2956 2453 c-12 -13 -6 -132 8 -145 7 -8 153 -81 325 -163 171 -82
311 -152 311 -156 0 -3 -141 -74 -312 -159 -172 -84 -319 -160 -325 -168 -19
-24 -17 -131 3 -139 18 -7 771 370 797 399 19 22 23 88 7 118 -5 10 -180 105
-392 212 -416 211 -413 209 -422 201z"/>
<path d="M1870 2254 c-212 -108 -388 -202 -392 -208 -10 -14 -10 -108 0 -122
4 -6 186 -102 404 -213 373 -190 397 -201 407 -182 14 25 14 82 1 116 -8 20
-37 39 -132 84 -68 32 -213 102 -323 156 l-200 97 322 159 c347 169 343 167
343 244 0 45 -9 65 -29 65 -9 0 -189 -89 -401 -196z"/>
</g>
</svg>
