<?xml version="1.0" standalone="no"?>
<!DOCTYPE svg PUBLIC "-//W3C//DTD SVG 20010904//EN"
 "http://www.w3.org/TR/2001/REC-SVG-20010904/DTD/svg10.dtd">
<svg version="1.0" xmlns="http://www.w3.org/2000/svg"
 width="575.000000pt" height="474.000000pt" viewBox="0 0 575.000000 474.000000"
 preserveAspectRatio="xMidYMid meet">

<g transform="translate(0.000000,474.000000) scale(0.100000,-0.100000)"
fill="#000000" stroke="none">
<path d="M445 4440 c-11 -4 -31 -20 -45 -35 l-25 -27 -3 -1856 c-2 -1325 1
-1876 9 -1924 13 -80 61 -183 117 -254 49 -62 154 -134 242 -166 l65 -23 2075
-3 c1516 -2 2093 0 2143 9 156 26 306 135 380 276 70 133 67 60 67 1558 0
1479 2 1426 -60 1550 -57 116 -166 214 -299 267 l-56 23 -1159 5 -1160 5 -240
287 c-147 175 -253 293 -273 302 -27 14 -132 16 -895 15 -474 0 -872 -4 -883
-9z m1815 -392 c80 -94 151 -180 158 -190 13 -17 -17 -18 -897 -18 l-911 0 0
190 0 190 753 0 752 0 145 -172z m2802 -471 c32 -16 75 -48 97 -73 76 -87 71
23 71 -1514 l0 -1377 -31 -61 c-35 -70 -71 -104 -149 -141 l-55 -26 -2075 0
-2075 0 -55 26 c-78 37 -114 71 -149 141 l-31 61 0 1499 0 1498 2198 -2 2197
-3 57 -28z"/>
<path d="M1192 2647 c-14 -16 -23 2 177 -340 l161 -277 -180 -304 c-99 -168
-180 -311 -180 -319 0 -21 22 -27 91 -27 43 0 64 5 77 18 9 9 80 129 156 265
77 136 143 244 147 240 4 -4 69 -118 144 -253 75 -135 143 -251 152 -257 22
-17 134 -17 157 0 22 16 38 -14 -178 356 -122 210 -163 288 -156 300 4 9 81
140 169 290 89 151 161 283 161 292 0 9 -7 20 -16 23 -25 10 -113 7 -134 -4
-10 -5 -80 -118 -155 -250 -75 -132 -138 -240 -140 -240 -2 0 -63 105 -136
233 -72 127 -140 240 -151 250 -25 21 -149 25 -166 4z"/>
<path d="M4058 2650 c-17 -10 -18 -51 -18 -620 l0 -609 22 -15 c19 -14 66 -16
313 -16 213 0 294 3 303 12 7 7 12 36 12 65 0 41 -4 54 -19 63 -12 6 -107 10
-240 10 l-221 0 0 543 c0 306 -4 548 -9 556 -12 18 -119 26 -143 11z"/>
<path d="M2351 2631 c-21 -21 -21 -26 -21 -630 l0 -609 23 -6 c35 -9 96 -7
118 4 18 10 19 27 19 563 0 312 4 545 9 537 5 -8 102 -256 216 -550 114 -294
212 -539 216 -544 15 -16 122 -19 140 -4 9 7 117 262 240 565 l224 552 3 -552
c2 -621 -4 -577 80 -577 24 0 52 5 63 10 18 10 19 28 19 615 0 711 12 645
-122 645 -93 0 -123 -11 -153 -55 -11 -17 -108 -241 -215 -498 -106 -257 -197
-464 -201 -460 -3 5 -93 225 -198 490 -159 397 -197 485 -219 500 -20 13 -51
19 -124 21 -87 3 -98 2 -117 -17z"/>
</g>
</svg>
