<svg width="30" height="30" viewBox="0 0 30 30" fill="none" xmlns="http://www.w3.org/2000/svg">
<path d="M11.25 18.75V11.25H18.75V18.75H11.25ZM13.75 16.25H16.25V13.75H13.75V16.25ZM11.25 26.25V23.75H8.75C8.0625 23.75 7.47396 23.5052 6.98438 23.0156C6.49479 22.526 6.25 21.9375 6.25 21.25V18.75H3.75V16.25H6.25V13.75H3.75V11.25H6.25V8.75C6.25 8.0625 6.49479 7.47396 6.98438 6.98438C7.47396 6.49479 8.0625 6.25 8.75 6.25H11.25V3.75H13.75V6.25H16.25V3.75H18.75V6.25H21.25C21.9375 6.25 22.526 6.49479 23.0156 6.98438C23.5052 7.47396 23.75 8.0625 23.75 8.75V11.25H26.25V13.75H23.75V16.25H26.25V18.75H23.75V21.25C23.75 21.9375 23.5052 22.526 23.0156 23.0156C22.526 23.5052 21.9375 23.75 21.25 23.75H18.75V26.25H16.25V23.75H13.75V26.25H11.25ZM21.25 21.25V8.75H8.75V21.25H21.25Z" fill="white"/>
</svg>
