<svg width="45" height="45" viewBox="0 0 45 45" fill="none" xmlns="http://www.w3.org/2000/svg">
<path opacity="0.68" d="M41.8246 19C43.075 21.1658 43.075 23.8342 41.8246 26L35.1934 37.4856C33.9429 39.6514 31.6321 40.9856 29.1312 40.9856L15.8688 40.9856C13.3679 40.9856 11.0571 39.6514 9.80662 37.4856L3.17543 26C1.925 23.8342 1.925 21.1658 3.17543 19L9.80663 7.51443C11.0571 5.34862 13.3679 4.01443 15.8688 4.01443L29.1312 4.01443C31.6321 4.01443 33.9429 5.34862 35.1934 7.51443L41.8246 19Z" fill="white" stroke="#2C2C2C" stroke-width="2"/>
<g clip-path="url(#clip0_55_84)">
<path d="M29.5833 21.5001C29.5845 22.4331 29.4008 23.357 29.0428 24.2186C28.6848 25.0802 28.1597 25.8623 27.4976 26.5197C26.841 27.1751 26.0617 27.6948 25.2042 28.0489C24.3467 28.403 23.4278 28.5846 22.5 28.5834C18.5879 28.5834 15.4167 25.4122 15.4167 21.5001C15.4142 19.6838 16.1118 17.9365 17.3646 16.6214C18.0256 15.9239 18.8219 15.3687 19.705 14.9896C20.588 14.6105 21.5391 14.4156 22.5 14.4168C23.4278 14.4156 24.3467 14.5972 25.2042 14.9513C26.0617 15.3054 26.841 15.825 27.4976 16.4805C28.1597 17.1379 28.6848 17.92 29.0428 18.7816C29.4008 19.6431 29.5845 20.5671 29.5833 21.5001Z" stroke="#2C2C2C" stroke-width="2" stroke-linecap="round" stroke-linejoin="round"/>
<path d="M29.5833 21.5001C28.5499 21.5001 25.6988 21.1105 23.1471 22.2308C20.375 23.448 18.3679 25.3361 17.4931 26.5105" stroke="#2C2C2C" stroke-width="2" stroke-linecap="round" stroke-linejoin="round"/>
<path d="M19.8438 14.9316C20.9523 15.9548 23.3712 18.5597 24.2708 21.1458C25.1704 23.732 25.5033 26.9117 25.7088 27.8166" stroke="#2C2C2C" stroke-width="2" stroke-linecap="round" stroke-linejoin="round"/>
<path d="M15.4712 20.6146C16.8092 20.6954 20.3513 20.768 22.6179 19.8C24.8846 18.8321 26.835 17.0517 27.504 16.4868M15.9479 24.1963C16.5721 25.7072 17.6977 26.9568 19.1354 27.7348" stroke="#2C2C2C" stroke-width="2" stroke-linecap="round" stroke-linejoin="round"/>
<path d="M15.4167 21.5001C15.4142 19.6838 16.1118 17.9365 17.3646 16.6214C18.0256 15.9239 18.8219 15.3687 19.705 14.9896C20.588 14.6105 21.5391 14.4156 22.5 14.4168M25.3333 15.0061C26.14 15.359 26.8739 15.859 27.4976 16.4805C28.1597 17.1379 28.6848 17.92 29.0428 18.7816C29.4008 19.6431 29.5845 20.5671 29.5833 21.5001C29.5833 22.372 29.4257 23.2075 29.1371 23.9793M22.5 28.5834C23.4278 28.5846 24.3467 28.403 25.2042 28.0489C26.0617 27.6948 26.841 27.1751 27.4976 26.5197" stroke="#2C2C2C" stroke-width="2" stroke-linecap="round" stroke-linejoin="round"/>
</g>
<defs>
<clipPath id="clip0_55_84">
<rect width="17" height="17" fill="white" transform="translate(14 13)"/>
</clipPath>
</defs>
</svg>
