<svg width="45" height="45" viewBox="0 0 45 45" fill="none" xmlns="http://www.w3.org/2000/svg">
<path opacity="0.68" d="M41.8246 19C43.075 21.1658 43.075 23.8342 41.8246 26L35.1934 37.4856C33.9429 39.6514 31.6321 40.9856 29.1312 40.9856L15.8688 40.9856C13.3679 40.9856 11.0571 39.6514 9.80662 37.4856L3.17543 26C1.925 23.8342 1.925 21.1658 3.17543 19L9.80663 7.51443C11.0571 5.34862 13.3679 4.01443 15.8688 4.01443L29.1312 4.01443C31.6321 4.01443 33.9429 5.34862 35.1934 7.51443L41.8246 19Z" fill="white" stroke="#2C2C2C" stroke-width="2"/>
<g clip-path="url(#clip0_55_96)">
<path d="M18.93 14H26.07C28.79 14 31 16.21 31 18.93V26.07C31 27.3775 30.4806 28.6315 29.556 29.556C28.6315 30.4806 27.3775 31 26.07 31H18.93C16.21 31 14 28.79 14 26.07V18.93C14 17.6225 14.5194 16.3685 15.444 15.444C16.3685 14.5194 17.6225 14 18.93 14ZM18.76 15.7C17.9484 15.7 17.1701 16.0224 16.5963 16.5963C16.0224 17.1701 15.7 17.9484 15.7 18.76V26.24C15.7 27.9315 17.0685 29.3 18.76 29.3H26.24C27.0516 29.3 27.8299 28.9776 28.4037 28.4037C28.9776 27.8299 29.3 27.0516 29.3 26.24V18.76C29.3 17.0685 27.9315 15.7 26.24 15.7H18.76ZM26.9625 16.975C27.2443 16.975 27.5145 17.0869 27.7138 17.2862C27.9131 17.4855 28.025 17.7557 28.025 18.0375C28.025 18.3193 27.9131 18.5895 27.7138 18.7888C27.5145 18.9881 27.2443 19.1 26.9625 19.1C26.6807 19.1 26.4105 18.9881 26.2112 18.7888C26.0119 18.5895 25.9 18.3193 25.9 18.0375C25.9 17.7557 26.0119 17.4855 26.2112 17.2862C26.4105 17.0869 26.6807 16.975 26.9625 16.975ZM22.5 18.25C23.6272 18.25 24.7082 18.6978 25.5052 19.4948C26.3022 20.2918 26.75 21.3728 26.75 22.5C26.75 23.6272 26.3022 24.7082 25.5052 25.5052C24.7082 26.3022 23.6272 26.75 22.5 26.75C21.3728 26.75 20.2918 26.3022 19.4948 25.5052C18.6978 24.7082 18.25 23.6272 18.25 22.5C18.25 21.3728 18.6978 20.2918 19.4948 19.4948C20.2918 18.6978 21.3728 18.25 22.5 18.25ZM22.5 19.95C21.8237 19.95 21.1751 20.2187 20.6969 20.6969C20.2187 21.1751 19.95 21.8237 19.95 22.5C19.95 23.1763 20.2187 23.8249 20.6969 24.3031C21.1751 24.7813 21.8237 25.05 22.5 25.05C23.1763 25.05 23.8249 24.7813 24.3031 24.3031C24.7813 23.8249 25.05 23.1763 25.05 22.5C25.05 21.8237 24.7813 21.1751 24.3031 20.6969C23.8249 20.2187 23.1763 19.95 22.5 19.95Z" fill="#2C2C2C"/>
</g>
<defs>
<clipPath id="clip0_55_96">
<rect width="17" height="17" fill="white" transform="translate(14 14)"/>
</clipPath>
</defs>
</svg>
