<svg width="45" height="45" viewBox="0 0 45 45" fill="none" xmlns="http://www.w3.org/2000/svg">
<path opacity="0.68" d="M41.8246 19C43.075 21.1658 43.075 23.8342 41.8246 26L35.1934 37.4856C33.9429 39.6514 31.6321 40.9856 29.1312 40.9856L15.8688 40.9856C13.3679 40.9856 11.0571 39.6514 9.80662 37.4856L3.17543 26C1.925 23.8342 1.925 21.1658 3.17543 19L9.80663 7.51443C11.0571 5.34862 13.3679 4.01443 15.8688 4.01443L29.1312 4.01443C31.6321 4.01443 33.9429 5.34862 35.1934 7.51443L41.8246 19Z" fill="white" stroke="#2C2C2C" stroke-width="2"/>
<path d="M31.9997 22.4227V29H28.1416V22.863C28.1416 21.3209 27.5833 20.2691 26.1873 20.2691C25.1213 20.2691 24.4864 20.9787 24.2077 21.6641C24.1058 21.9092 24.0796 22.2506 24.0796 22.5938V29H20.2197C20.2197 29 20.272 18.6068 20.2197 17.5291H24.0796V19.1549L24.0544 19.1924H24.0796V19.1549C24.5919 18.375 25.5073 17.2599 27.5572 17.2599C30.0959 17.2599 31.9997 18.9 31.9997 22.4227ZM16.1831 12C14.8637 12 13.9997 12.8557 13.9997 13.9815C13.9997 15.0823 14.8384 15.9639 16.1326 15.9639H16.1578C17.5043 15.9639 18.3403 15.0823 18.3403 13.9815C18.3168 12.8557 17.5043 12 16.1831 12ZM14.2287 29H18.0869V17.5291H14.2287V29Z" fill="#2C2C2C"/>
</svg>
